# xmcd
#
# Track frame offsets: 
#        188
#        12938
#        25473
#        38003
#        52933
#        63053
#        73938
#        88320
#        101285
#        113718
#        127235
#        139155
#        150963
#        162238
#        166825
#        181868
#        194020
#        208320
#        221568
#        233280
#        249853
#
# Disc length: 3504 seconds
#
# Revision: 2
# Processed by: cddbd v1.5.2PL0 Copyright (c) Steve Scherf et al.
# Submitted via: ExactAudioCopy v1.0b1
#
DISCID=1a0dae15
DTITLE=Elmore James - Classic Early Recordings: Culver City To Crescen
DTITLE=t City [CD3]
DYEAR=1993
DGENRE=Blues
TTITLE0=Standing At The Crossroads (mono)
TTITLE1=Late Hours At Midnight (mono)
TTITLE2=Happy Home (mono)
TTITLE3=Sunny Land (mono)
TTITLE4=The Way You Treat Me (Mean And Evil) (mono)
TTITLE5=No Love In My Heart (mono)
TTITLE6=Dust My Blues (mono)
TTITLE7=I Was A Fool (mono)
TTITLE8=Blues Before Sunrise (mono)
TTITLE9=Goodbye (Baby) (mono)
TTITLE10=So Mean To Me (take 2) (mono)
TTITLE11=So Mean To Me (take 3) (mono)
TTITLE12=So Mean To Me (take 4) (mono)
TTITLE13=Wild About You (false start) (mono)
TTITLE14=Wild About You (mono)
TTITLE15=Wild About You (alt) (mono)
TTITLE16=Elmo's Shuffle (take 3) (mono)
TTITLE17=Elmo's Shuffle (take 4) (mono)
TTITLE18=Elmo's Shuffle (take 5) (mono)
TTITLE19=Long Tall Woman (alt) (mono)
TTITLE20=Long Tall Woman (mono)
EXTD=
EXTT0=
EXTT1=
EXTT2=
EXTT3=
EXTT4=
EXTT5=
EXTT6=
EXTT7=
EXTT8=
EXTT9=
EXTT10=
EXTT11=
EXTT12=
EXTT13=
EXTT14=
EXTT15=
EXTT16=
EXTT17=
EXTT18=
EXTT19=
EXTT20=
PLAYORDER=
